{
  "source": "C:\\Users\\Peter\\Desktop\\stuff\\MIUN\\quantitative_research\\video_compression\\videos\\BVI-HD\\BVI-HD_CDVL_videos\\ORIG\\Boxing_1920x1080_30fps.mp4",
  "output": "C:\\Users\\Peter\\Desktop\\stuff\\MIUN\\quantitative_research\\video_compression\\compressed_videos\\BVI-HD\\h264\\1.5\\Boxing_1920x1080_30fps_h264.mp4",
  "codec": "h264",
  "ok": "Input #0, mov,mp4,m4a,3gp,3g2,mj2, from 'C:\\Users\\Peter\\Desktop\\stuff\\MIUN\\quantitative_research\\video_compression\\videos\\BVI-HD\\BVI-HD_CDVL_videos\\ORIG\\Boxing_1920x1080_30fps.mp4':\n  Metadata:\n    major_brand     : isom\n    minor_version   : 512\n    compatible_brands: isomiso2avc1mp41\n    encoder         : Lavf54.28.101\n  Duration: 00:00:05.00, start: 0.000000, bitrate: 238363 kb/s\n  Stream #0:0[0x1](und): Video: h264 (High 4:4:4 Predictive) (avc1 / 0x31637661), yuv420p(progressive), 1920x1080, 238359 kb/s, 30 fps, 30 tbr, 30 tbn (default)\n    Metadata:\n      handler_name    : VideoHandler\n      vendor_id       : [0][0][0][0]\n[out#0/mp4 @ 0000020ea28c14c0] Codec AVOption b:a (set bitrate (in bits/s)) has not been used for any stream. The most likely reason is either wrong type (e.g. a video option with no video streams) or that it is a private option of some decoder which was not actually used for any stream.\nStream mapping:\n  Stream #0:0 -> #0:0 (h264 (native) -> h264 (libx264))\nPress [q] to stop, [?] for help\n[libx264 @ 0000020ea322bb80] using cpu capabilities: MMX2 SSE2Fast SSSE3 SSE4.2 AVX FMA3 BMI2 AVX2\n[libx264 @ 0000020ea322bb80] profile High, level 5.0, 4:2:0, 8-bit\n[libx264 @ 0000020ea322bb80] 264 - core 165 r3222 b35605a - H.264/MPEG-4 AVC codec - Copyleft 2003-2025 - http://www.videolan.org/x264.html - options: cabac=1 ref=5 deblock=1:0:0 analyse=0x3:0x113 me=hex subme=8 psy=1 psy_rd=1.00:0.00 mixed_ref=1 me_range=16 chroma_me=1 trellis=2 8x8dct=1 cqm=0 deadzone=21,11 fast_pskip=1 chroma_qp_offset=-2 threads=18 lookahead_threads=3 sliced_threads=0 nr=0 decimate=1 interlaced=0 bluray_compat=0 constrained_intra=0 bframes=3 b_pyramid=2 b_adapt=1 b_bias=0 direct=3 weightb=1 open_gop=0 weightp=2 keyint=250 keyint_min=25 scenecut=40 intra_refresh=0 rc_lookahead=50 rc=cbr mbtree=1 bitrate=1500 ratetol=1.0 qcomp=0.60 qpmin=0 qpmax=69 qpstep=4 vbv_maxrate=1500 vbv_bufsize=1500 nal_hrd=none filler=0 ip_ratio=1.40 aq=1:1.00\nOutput #0, mp4, to 'C:\\Users\\Peter\\Desktop\\stuff\\MIUN\\quantitative_research\\video_compression\\compressed_videos\\BVI-HD\\h264\\1.5\\Boxing_1920x1080_30fps_h264.mp4':\n  Metadata:\n    major_brand     : isom\n    minor_version   : 512\n    compatible_brands: isomiso2avc1mp41\n    encoder         : Lavf62.3.100\n  Stream #0:0(und): Video: h264 (avc1 / 0x31637661), yuv420p(tv, progressive), 1920x1080, q=2-31, 1500 kb/s, 30 fps, 15360 tbn (default)\n    Metadata:\n      encoder         : Lavc62.11.100 libx264\n      handler_name    : VideoHandler\n      vendor_id       : [0][0][0][0]\n    Side data:\n      cpb: bitrate max/min/avg: 1500000/0/1500000 buffer size: 1500000 vbv_delay: N/A\nframe=    0 fps=0.0 q=0.0 size=       0KiB time=N/A bitrate=N/A speed=N/A elapsed=0:00:00.51    \nframe=    0 fps=0.0 q=0.0 size=       0KiB time=N/A bitrate=N/A speed=N/A elapsed=0:00:01.07    \nframe=   11 fps=6.8 q=42.0 size=       0KiB time=00:00:00.20 bitrate=   1.9kbits/s speed=0.124x elapsed=0:00:01.61    \nframe=   43 fps= 19 q=41.0 size=       0KiB time=00:00:01.23 bitrate=   0.3kbits/s speed=0.557x elapsed=0:00:02.21    \nframe=   74 fps= 26 q=41.0 size=     256KiB time=00:00:02.40 bitrate= 874.0kbits/s speed=0.843x elapsed=0:00:02.84    \nframe=  119 fps= 35 q=40.0 size=     512KiB time=00:00:03.86 bitrate=1084.8kbits/s speed=1.15x elapsed=0:00:03.37    \n[mp4 @ 0000020ea28c15c0] Starting second pass: moving the moov atom to the beginning of the file\n[out#0/mp4 @ 0000020ea28c14c0] video:823KiB audio:0KiB subtitle:0KiB other streams:0KiB global headers:0KiB muxing overhead: 0.308871%\nframe=  150 fps= 40 q=-1.0 Lsize=     826KiB time=00:00:04.93 bitrate=1370.8kbits/s speed=1.33x elapsed=0:00:03.71    \n[libx264 @ 0000020ea322bb80] frame I:1     Avg QP:38.24  size: 20073\n[libx264 @ 0000020ea322bb80] frame P:40    Avg QP:39.90  size:  8747\n[libx264 @ 0000020ea322bb80] frame B:109   Avg QP:42.52  size:  4331\n[libx264 @ 0000020ea322bb80] consecutive B-frames:  0.7%  2.7% 14.0% 82.7%\n[libx264 @ 0000020ea322bb80] mb I  I16..4: 58.3% 40.6%  1.1%\n[libx264 @ 0000020ea322bb80] mb P  I16..4: 12.4% 11.9%  0.1%  P16..4: 21.6%  1.1%  1.6%  0.0%  0.0%    skip:51.3%\n[libx264 @ 0000020ea322bb80] mb B  I16..4:  2.6%  2.9%  0.0%  B16..8: 21.2%  0.8%  0.1%  direct: 0.4%  skip:72.1%  L0:44.1% L1:55.1% BI: 0.8%\n[libx264 @ 0000020ea322bb80] 8x8 transform intra:49.5% inter:94.2%\n[libx264 @ 0000020ea322bb80] direct mvs  spatial:91.7% temporal:8.3%\n[libx264 @ 0000020ea322bb80] coded y,uvDC,uvAC intra: 10.8% 25.2% 1.3% inter: 1.4% 2.5% 0.0%\n[libx264 @ 0000020ea322bb80] i16 v,h,dc,p: 31% 24%  6% 38%\n[libx264 @ 0000020ea322bb80] i8 v,h,dc,ddl,ddr,vr,hd,vl,hu: 17%  8% 35%  7%  8%  8%  7%  6%  4%\n[libx264 @ 0000020ea322bb80] i4 v,h,dc,ddl,ddr,vr,hd,vl,hu: 17% 10% 21%  9% 14%  9%  9%  6%  5%\n[libx264 @ 0000020ea322bb80] i8c dc,h,v,p: 81%  9%  8%  3%\n[libx264 @ 0000020ea322bb80] Weighted P-Frames: Y:7.5% UV:7.5%\n[libx264 @ 0000020ea322bb80] ref P L0: 49.6%  8.0% 23.7%  8.8%  9.2%  0.8%\n[libx264 @ 0000020ea322bb80] ref B L0: 77.0% 14.0%  6.9%  2.1%\n[libx264 @ 0000020ea322bb80] ref B L1: 93.9%  6.1%\n[libx264 @ 0000020ea322bb80] kb/s:1347.18\n",
  "seconds": 3.966583728790283,
  "probe_out": {}
}